<svg height="100" width="100" xmlns="http://www.w3.org/2000/svg">
  <polyline
  points="
    50,50
    5,50
    15,95
    
    16,95
    16,50
    16,95


    32,95
    32,50
    32,95


    50,95
      50,82
      10,82
      50,82
      
      50,66
      10,66
      50,66
    50,50
    48,0
    52,0
      50,66
      90,66
      50,66

      50,82
      90,82
      50,82

    50,95

    66,95
    66,50
    66,95

    82,95
    82,50
    82,95
    
    85,95
    95,50
    50,50"
  stroke="black"
  stroke-width="5"
  fill-opacity="0"/>
  <circle cx="50" cy="50" r="10"/>
</svg>