<?xml version="1.0" encoding="UTF-8" standalone="no"?>
<!-- Created with Inkscape (http://www.inkscape.org/) -->

<svg
   width="100mm"
   height="100mm"
   viewBox="0 0 100 99.999999"
   version="1.1"
   id="svg5"
   sodipodi:docname="twitter-logo.svg"
   inkscape:version="1.1.2 (0a00cf5339, 2022-02-04, custom)"
   xmlns:inkscape="http://www.inkscape.org/namespaces/inkscape"
   xmlns:sodipodi="http://sodipodi.sourceforge.net/DTD/sodipodi-0.dtd"
   xmlns="http://www.w3.org/2000/svg"
   xmlns:svg="http://www.w3.org/2000/svg">
  <sodipodi:namedview
     id="namedview7"
     pagecolor="#ffffff"
     bordercolor="#666666"
     borderopacity="1.0"
     inkscape:pageshadow="2"
     inkscape:pageopacity="0.0"
     inkscape:pagecheckerboard="0"
     inkscape:document-units="mm"
     showgrid="false"
     inkscape:lockguides="true"
     inkscape:zoom="1.933825"
     inkscape:cx="205.80973"
     inkscape:cy="199.60441"
     inkscape:window-width="1918"
     inkscape:window-height="1057"
     inkscape:window-x="0"
     inkscape:window-y="21"
     inkscape:window-maximized="1"
     inkscape:current-layer="layer1"
     width="100mm" />
  <defs
     id="defs2" />
  <g
     inkscape:label="Layer 1"
     inkscape:groupmode="layer"
     id="layer1"
     transform="translate(-0.05360706,-12.112813)">
    <path
       id="path111"
       style="fill:#000000;stroke:#000000;stroke-width:0.250787px;stroke-linecap:butt;stroke-linejoin:miter;stroke-opacity:1"
       d="m 69.491883,24.875835 c -3.374371,-0.07189 -7.044654,0.690341 -10.725591,2.950185 -13.087768,8.035008 -8.947544,20.173238 -8.947544,20.173238 0,0 -17.329959,-1.475255 -22.751163,-5.581009 C 19.071054,40.697054 7.468907,28.416743 7.468907,28.416743 c -7.98680414,16.277332 6.49942,24.861306 6.49942,24.861306 0,0 -4.5265145,-0.06665 -9.1650213,-2.252683 1.2714571,17.145316 15.8510663,18.256572 15.8510663,18.256572 0,0 -1.759493,1.820122 -8.558136,0.965437 2.907839,8.497495 10.872063,12.239067 18.491687,12.756874 C 16.135504,92.851167 -0.13344146,89.76679 0.46545989,90.355956 6.8057711,96.593216 37.391883,107.95461 66.161106,88.808615 90.83128,72.39055 88.124441,42.830343 90.116245,43.258781 c 1.991803,0.428439 11.581815,-9.621894 9.813542,-8.89709 -1.768271,0.724797 -15.071237,3.644764 -10.910739,1.898052 4.160499,-1.746713 11.187362,-11.166479 7.913038,-9.319807 -3.274329,1.846671 -12.125981,3.750061 -12.125981,3.750061 0,0 -6.690833,-5.630438 -15.314222,-5.814162 z m -1.250511,8.414128 a 3.1527085,3.0429519 0 0 1 3.168155,3.022678 v 0.02008 a 3.1527085,3.0429519 0 0 1 -3.147585,3.043253 3.1527085,3.0429519 0 0 1 -3.15787,-3.032967 3.1527085,3.0429519 0 0 1 3.1373,-3.053048 z" />
  </g>
</svg>
